<svg id="Layer_1" data-name="Layer 1" xmlns="http://www.w3.org/2000/svg" xmlns:xlink="http://www.w3.org/1999/xlink" viewBox="0 0 785.18 93"><defs><style>.cls-1{fill:#fff;}.cls-2{fill:#93278f;}.cls-3{fill:url(#linear-gradient);}.cls-4{fill:#fbb03b;}</style><linearGradient id="linear-gradient" x1="48.19" y1="44.69" x2="48.19" y2="71.8" gradientUnits="userSpaceOnUse"><stop offset="0" stop-color="#fbb03b"/><stop offset="0.46" stop-color="#fbad38"/><stop offset="0.73" stop-color="#faa530"/><stop offset="0.95" stop-color="#f89722"/><stop offset="1" stop-color="#f7931e"/></linearGradient></defs><title>wiz</title><path class="cls-1" d="M40,54.37H37c-1.2,0-1.94.43-2.23,1.29a2.07,2.07,0,0,0,1,2.45c1.69,1.28,3.37,2.57,5.07,3.82a.68.68,0,0,1,.28,1c-.8,2-1.55,3.94-2.32,5.91a2,2,0,0,0,3.12,2.4c1.92-1.43,3.85-2.86,5.75-4.33a.77.77,0,0,1,1.13,0c1.88,1.45,3.79,2.86,5.69,4.28a3.64,3.64,0,0,0,.93.54,1.84,1.84,0,0,0,2-.55,1.88,1.88,0,0,0,.33-2.09c-.78-2-1.55-4-2.36-6a.8.8,0,0,1,.31-1.15c1.73-1.27,3.43-2.57,5.13-3.87a2,2,0,0,0-1.24-3.63c-2.12,0-4.23,0-6.35,0a.81.81,0,0,1-.95-.71c-.69-2.48-1.43-5-2.14-7.43a1.92,1.92,0,0,0-1.42-1.48,1.89,1.89,0,0,0-2.37,1.43q-1.11,3.75-2.18,7.51c-.14.49-.33.71-.89.68C42.16,54.33,41.07,54.37,40,54.37ZM83.07,42.75c0-.7,0-1.29,0-1.88a1.93,1.93,0,1,0-3.86,0c0,.61,0,1.23,0,1.89-.68,0-1.26,0-1.85,0a1.93,1.93,0,0,0-2,1.9,2,2,0,0,0,2,2c.58,0,1.17,0,1.83,0v1.75a1.95,1.95,0,1,0,3.88,0V46.62c.73,0,1.35,0,2,0a1.93,1.93,0,0,0,0-3.86C84.4,42.73,83.78,42.75,83.07,42.75ZM15.26,19.45c0,.67,0,1.34,0,2a1.91,1.91,0,0,0,1.94,1.91,1.88,1.88,0,0,0,1.9-1.85c.05-1.34.05-2.69,0-4a1.89,1.89,0,0,0-1.89-1.87,1.92,1.92,0,0,0-1.95,1.9C15.23,18.16,15.26,18.81,15.26,19.45Zm0,11.64c0,.64,0,1.29,0,1.93a1.93,1.93,0,1,0,3.85,0q.06-1.93,0-3.87a1.93,1.93,0,1,0-3.85.05C15.24,29.85,15.26,30.47,15.26,31.09Zm7.8-7.71c-.69,0-1.39,0-2.09,0a1.91,1.91,0,0,0-1.83,1.93A1.89,1.89,0,0,0,21,27.23c1.34,0,2.69,0,4,0a1.93,1.93,0,0,0,0-3.86C24.36,23.35,23.71,23.37,23.06,23.38ZM11.33,27.24c.7,0,1.4,0,2.09,0a1.93,1.93,0,0,0,0-3.85c-1.35,0-2.69,0-4,0a1.93,1.93,0,0,0,0,3.86C10,27.27,10.69,27.24,11.33,27.24Z" transform="translate(-1.66 -4)"/><path class="cls-2" d="M77.8,4c1.4.86,1.64,1.45,1.15,3.09a35,35,0,0,1-7.47,13.16c-2,2.28-4.27,4.34-6.46,6.45-.73.71-5.63,3.63-6.39,3.12s-.2-.3.12-1.1c-.12-1.34-2.06-1.82,4-5.12A41.21,41.21,0,0,0,74,9.21c.12-.26.23-.52.34-.78,0,0,0-.1,0-.28-1,.13-2.07.22-3.1.38a60.37,60.37,0,0,0-18.16,5.68A23.63,23.63,0,0,0,41.3,27C35.35,42.19,29.49,57.39,23.59,72.58c-.06.17-.11.34-.19.59.71.45,1.42.93,2.15,1.34a37.72,37.72,0,0,0,13,4.3,59.75,59.75,0,0,0,22.92-.74,33.44,33.44,0,0,0,10.76-4.42c.19-.12.38-.26.57-.39a1.44,1.44,0,0,0,.18-.21l-3.64-9.84q-7.53-20.34-15-40.69a3.4,3.4,0,0,1-.13-1.79A1.75,1.75,0,0,1,56,19.5a1.91,1.91,0,0,1,1.83,1.31c.63,1.67,1.24,3.34,1.86,5q8.64,23.35,17.29,46.7c.56,1.5.41,2.1-.83,3.11A32.23,32.23,0,0,1,64.49,81.3a61.26,61.26,0,0,1-21.1,2A49.4,49.4,0,0,1,26.8,79.48a27.36,27.36,0,0,1-6.45-3.8C19,74.61,18.88,74,19.49,72.46l1.28-3.33c-.63.26-1.22.55-1.84.75a35.55,35.55,0,0,0-8.94,4,16.31,16.31,0,0,0-3,2.47c-2,2.16-1.94,4.27,0,6.48a17.2,17.2,0,0,0,5.61,3.93A58.92,58.92,0,0,0,28,91.4a116.1,116.1,0,0,0,27.17,1.52,88,88,0,0,0,24.07-4.3,28.52,28.52,0,0,0,8.08-4,14.54,14.54,0,0,0,2.75-2.79,3.56,3.56,0,0,0,0-4.54,16.2,16.2,0,0,0-3.14-3C84,72.15,77,69,74,69c-1.09-.35,0-1.06,0-2,0-1.26-3.2-3.36-2-3,4.62,1.4,15,5,18.88,8.37a10.29,10.29,0,0,1,3.61,5.47c.68,2.92-.42,5.32-2.31,7.44A24.05,24.05,0,0,1,83.85,91a64,64,0,0,1-16.56,4.64A126.79,126.79,0,0,1,41,96.8c-8.54-.43-17-1.57-25.06-4.46A30.44,30.44,0,0,1,6,86.93,17,17,0,0,1,2.86,83.4a7.11,7.11,0,0,1-.12-7.71A13.77,13.77,0,0,1,7.28,71C10.77,68.61,20,65.17,24,64c1.29-.37-2.2,2.28-2,4,.17-.4-.58-.53-.47-.81,5.34-13.75,10.64-27.51,16-41.24A28.37,28.37,0,0,1,53.13,9.89,68.19,68.19,0,0,1,75.42,4.13,3,3,0,0,0,75.94,4Z" transform="translate(-1.66 -4)"/><path class="cls-3" d="M40,54.37c1.08,0,2.17,0,3.25,0,.56,0,.75-.19.89-.68q1.07-3.77,2.18-7.51a1.89,1.89,0,0,1,2.37-1.43,1.92,1.92,0,0,1,1.42,1.48c.71,2.48,1.45,4.95,2.14,7.43a.81.81,0,0,0,.95.71c2.12,0,4.23,0,6.35,0A2,2,0,0,1,60.78,58c-1.7,1.3-3.4,2.6-5.13,3.87A.8.8,0,0,0,55.34,63c.81,2,1.58,4,2.36,6a1.88,1.88,0,0,1-.33,2.09,1.84,1.84,0,0,1-2,.55,3.64,3.64,0,0,1-.93-.54c-1.9-1.42-3.81-2.83-5.69-4.28a.77.77,0,0,0-1.13,0c-1.9,1.47-3.83,2.9-5.75,4.33a2,2,0,0,1-3.12-2.4c.77-2,1.52-4,2.32-5.91a.68.68,0,0,0-.28-1c-1.7-1.25-3.38-2.54-5.07-3.82a2.07,2.07,0,0,1-1-2.45c.29-.86,1-1.29,2.23-1.29Z" transform="translate(-1.66 -4)"/><path class="cls-4" d="M83.07,42.75c.71,0,1.33,0,1.94,0a1.93,1.93,0,0,1,0,3.86c-.62,0-1.24,0-2,0v1.77a1.95,1.95,0,1,1-3.88,0V46.62c-.66,0-1.25,0-1.83,0a2,2,0,0,1-2-2,1.93,1.93,0,0,1,2-1.9c.59,0,1.17,0,1.85,0,0-.66,0-1.28,0-1.89a1.93,1.93,0,1,1,3.86,0C83.08,41.46,83.07,42.05,83.07,42.75Z" transform="translate(-1.66 -4)"/><path class="cls-4" d="M15.26,19.45c0-.64,0-1.29,0-1.93a1.92,1.92,0,0,1,1.95-1.9,1.89,1.89,0,0,1,1.89,1.87c.05,1.34.05,2.69,0,4a1.88,1.88,0,0,1-1.9,1.85,1.91,1.91,0,0,1-1.94-1.91C15.23,20.79,15.26,20.12,15.26,19.45Z" transform="translate(-1.66 -4)"/><path class="cls-4" d="M15.26,31.09c0-.62,0-1.24,0-1.86a1.93,1.93,0,1,1,3.85-.05q.06,1.93,0,3.87a1.93,1.93,0,1,1-3.85,0C15.24,32.38,15.26,31.73,15.26,31.09Z" transform="translate(-1.66 -4)"/><path class="cls-4" d="M23.06,23.37c.65,0,1.3,0,1.94,0a1.93,1.93,0,0,1,0,3.86c-1.34,0-2.69,0-4,0a1.89,1.89,0,0,1-1.83-1.92A1.91,1.91,0,0,1,21,23.38C21.67,23.35,22.37,23.38,23.06,23.37Z" transform="translate(-1.66 -4)"/><path class="cls-4" d="M11.33,27.24c-.64,0-1.29,0-1.93,0a1.93,1.93,0,0,1,0-3.86c1.34,0,2.68,0,4,0a1.93,1.93,0,0,1,0,3.85C12.73,27.27,12,27.24,11.33,27.24Z" transform="translate(-1.66 -4)"/><path class="cls-1" d="M182.53,93.33l-.24-38.28L164.05,85.77H151.57l-18.24-29.4v37h-25.8v-84h23.28l27.36,44.76L184.81,9.33h23.28l.24,84Z" transform="translate(-1.66 -4)"/><path class="cls-1" d="M271.93,62.85V93.33H243.61V62.49L211.93,9.33h29.88l17.16,29,17.28-29h27.36Z" transform="translate(-1.66 -4)"/><path class="cls-1" d="M382.21,93.33,382,55.05,363.73,85.77H351.25L333,56.37v37h-25.8v-84h23.28l27.36,44.76L384.49,9.33h23.28l.24,84Z" transform="translate(-1.66 -4)"/><path class="cls-1" d="M441.37,89.61a42.07,42.07,0,0,1-23-38.28,42.07,42.07,0,0,1,23-38.28,55.43,55.43,0,0,1,48.72,0,42.07,42.07,0,0,1,23,38.28,42.07,42.07,0,0,1-23,38.28,55.43,55.43,0,0,1-48.72,0Zm33.9-19.86a18.47,18.47,0,0,0,6.78-7.32,23.31,23.31,0,0,0,2.52-11.1,23.31,23.31,0,0,0-2.52-11.1,18.47,18.47,0,0,0-6.78-7.32,18.93,18.93,0,0,0-19.08,0,18.47,18.47,0,0,0-6.78,7.32,23.31,23.31,0,0,0-2.52,11.1,23.31,23.31,0,0,0,2.52,11.1,18.47,18.47,0,0,0,6.78,7.32,18.93,18.93,0,0,0,19.08,0Z" transform="translate(-1.66 -4)"/><path class="cls-1" d="M579,49.05h24.6V84.57a57.12,57.12,0,0,1-17.28,7.92A71.33,71.33,0,0,1,567,95.25a51.3,51.3,0,0,1-24.12-5.58,41.72,41.72,0,0,1-16.74-15.6,43.07,43.07,0,0,1-6.06-22.74,43.07,43.07,0,0,1,6.06-22.74A41.44,41.44,0,0,1,543.07,13a52.91,52.91,0,0,1,24.54-5.58,56.31,56.31,0,0,1,22.14,4.14A41.59,41.59,0,0,1,606,23.61l-18.12,16q-7.92-9.24-18.84-9.24-9.36,0-14.88,5.64t-5.52,15.36q0,9.48,5.46,15.24t14.58,5.76a26.68,26.68,0,0,0,10.32-2Z" transform="translate(-1.66 -4)"/><path class="cls-1" d="M617,90.15a15,15,0,0,1-4.5-11.22,14.59,14.59,0,0,1,4.5-11.1,17.22,17.22,0,0,1,22.68,0,14.59,14.59,0,0,1,4.5,11.1,15,15,0,0,1-4.5,11.22,16.87,16.87,0,0,1-22.68,0Z" transform="translate(-1.66 -4)"/><path class="cls-1" d="M653.4,9.33h28.32v84H653.4Z" transform="translate(-1.66 -4)"/><path class="cls-1" d="M715.08,89.61a42.07,42.07,0,0,1-23-38.28,42.07,42.07,0,0,1,23-38.28,55.43,55.43,0,0,1,48.72,0,42.07,42.07,0,0,1,23,38.28,42.07,42.07,0,0,1-23,38.28,55.43,55.43,0,0,1-48.72,0ZM749,69.75a18.47,18.47,0,0,0,6.78-7.32,23.31,23.31,0,0,0,2.52-11.1,23.31,23.31,0,0,0-2.52-11.1A18.47,18.47,0,0,0,749,32.91a18.93,18.93,0,0,0-19.08,0,18.47,18.47,0,0,0-6.78,7.32,23.31,23.31,0,0,0-2.52,11.1,23.31,23.31,0,0,0,2.52,11.1,18.47,18.47,0,0,0,6.78,7.32,18.93,18.93,0,0,0,19.08,0Z" transform="translate(-1.66 -4)"/></svg>